# xmcd
#
# Track frame offsets:
#	150
#	14436
#	27376
#	40201
#	53069
#	66644
#	80691
#	93277
#	107176
#	120857
#	133458
#	147045
#	161528
#	175562
#	189558
#	202663
#	217908
#	232050
#	245378
#	256441
#	271576
#	285958
#	299137
#	312455
#	326132
#
# Disc length: 4502 seconds
#
# Revision: 1
# Processed by: cddbd v1.5.2PL0 Copyright (c) Steve Scherf et al.
# Submitted via: audiograbber 1.83.01
#
DISCID=70119419
DTITLE=Various Artist - Harlem Jazz - The 20s
DYEAR=2002
DGENRE=Jazz
TTITLE0=The Get Happy Band - Harlem's Araby
TTITLE1=The Blue Rhythm Orchestra - Hold 'Er Deacon
TTITLE2=The Cottom Club Orchestra - Everybody Stomp
TTITLE3=Thomas Morris and His Seven Hot Babies - Ham Gravy
TTITLE4=The Savoy Bearcats - How Could I Be Blue
TTITLE5=Thomas Morris and His Seven Hot Babies - PDQ Blues
TTITLE6=Perry Bradford and His Gang - Original Black Bottom Dance
TTITLE7=Lloyd Scott and His Orchestra - Harlem Shuffle
TTITLE8=Fletcher Henderson - Variety Stomp
TTITLE9=Te Roy Willams and His Orchestra - Oh Malinda
TTITLE10=Fess Williams and His Royal Flush Orchestra - Number Ten
TTITLE11=Charles Johnson's Paradise Ten - Hot Tempered Blues
TTITLE12=Te Roy Tibbs and His Connie's Inn Orchestra - One O'Clock Blues
TTITLE13=Leroy Smith and His Orchestra - St. Louis Blues
TTITLE14=Duke Ellington And His Famous Orchestra - Cotton Club Stomp
TTITLE15=The Missourians - Market Street Stomp
TTITLE16=Joe Steele and His Orchestra - Coal Yard Shuffle
TTITLE17=Jabbo Smiths's Rhythm Aces - Croonin' The Blues
TTITLE18=Sam Wooding and His Chocolate Kids - Bull Foot Stomp
TTITLE19=Louis Armstrong and His Orchestra - Ain't Misbehavin'
TTITLE20=Luis Russell and His Orchestra - The New Call Of The Freaks
TTITLE21=The Little Chocolate Dandies - That's How I Feel Today
TTITLE22=Henry 'Red'Allen and His New York Orchestra - Pleasin' Paul
TTITLE23=Cecil Scott and His Bright Boys - Springfield Stomp
TTITLE24=King Oliver And His Orchestra - New Orleans Shout
EXTD=
EXTT0=
EXTT1=
EXTT2=
EXTT3=
EXTT4=
EXTT5=
EXTT6=
EXTT7=
EXTT8=
EXTT9=
EXTT10=
EXTT11=
EXTT12=
EXTT13=
EXTT14=
EXTT15=
EXTT16=
EXTT17=
EXTT18=
EXTT19=
EXTT20=
EXTT21=
EXTT22=
EXTT23=
EXTT24=
PLAYORDER=
